<?xml version="1.0" encoding="utf-8"?>
<!-- Generator: Adobe Illustrator 16.0.0, SVG Export Plug-In . SVG Version: 6.00 Build 0)  -->
<!DOCTYPE svg PUBLIC "-//W3C//DTD SVG 1.1//EN" "http://www.w3.org/Graphics/SVG/1.1/DTD/svg11.dtd">
<svg version="1.1" id="Layer_1" xmlns="http://www.w3.org/2000/svg" xmlns:xlink="http://www.w3.org/1999/xlink" x="0px" y="0px"
	 width="145px" height="33.25px" viewBox="196.75 148 145 33.25" enable-background="new 196.75 148 145 33.25"
	 xml:space="preserve">
<g>
	<path fill="#a7355f" d="M201.707,152.059c1.855-1.491,4.3-2.236,7.318-2.236c3.016,0,6.935,1.855,8.964,3.276
		c-0.693,0.764-1.629,1.614-1.89,1.978c-1.337-1.007-4.544-2.654-6.868-2.654c-2.185,0-3.919,0.486-5.219,1.475
		c-1.3,0.971-1.941,2.288-1.941,3.937c0,2.548,1.941,4.161,5.826,4.873l4.317,0.831c5.289,1.007,7.925,3.487,7.925,7.423
		c0,2.6-0.971,4.681-2.914,6.276c-1.941,1.578-4.507,2.376-7.699,2.376c-5.028,0-9.485-3.173-11.566-4.89
		c0.971-0.937,1.526-1.352,2.255-1.924c1.543,1.231,5.15,4.126,9.434,4.126c2.271,0,4.074-0.501,5.426-1.526
		c1.354-1.022,2.029-2.376,2.029-4.092c0-2.602-1.786-4.214-5.376-4.873l-4.941-0.971c-2.6-0.469-4.561-1.354-5.896-2.619
		s-1.995-2.895-1.995-4.838C198.914,155.527,199.852,153.551,201.707,152.059"/>
	<polygon fill="#a7355f" points="249.877,150.447 249.877,178.972 246.895,178.972 246.895,166.208 229.659,166.208
		229.659,178.972 226.676,178.972 226.676,150.447 229.659,150.447 229.659,163.486 246.895,163.486 246.895,150.447 	"/>
	<path fill="#a7355f" d="M277.051,170.666l3.693,8.306h3.191l-12.955-28.733h-2.809l-12.97,28.733h3.19l3.693-8.306
		c0,0,1.127-2.462,1.23-2.723l6.227-14.132"/>
	<path fill="#a7355f" d="M289.206,150.447h9.901c4.423,0,8.029,1.317,10.821,3.935c2.792,2.636,4.197,6,4.197,10.111
		c0,4.247-1.405,7.716-4.197,10.421s-6.398,4.04-10.821,4.04h-9.901V150.447z M292.189,176.232h6.918
		c3.486,0,6.364-1.093,8.601-3.295c2.238-2.202,3.347-5.011,3.347-8.443c0-3.295-1.108-6.018-3.347-8.134
		c-2.236-2.133-5.097-3.191-8.601-3.191h-6.918V176.232z"/>
	<polygon fill="#a7355f" points="320.714,163.4 320.714,166.174 323.228,166.174 323.228,166.174 336.043,166.174 336.043,163.4
		323.263,163.4 323.263,163.4 	"/>
	<polygon fill="#a7355f" points="320.714,176.232 320.714,178.972 340.5,178.972 340.5,176.232 324.495,176.232 324.495,176.232
		"/>
	<polygon fill="#a7355f" points="340.5,153.168 340.5,150.447 320.714,150.447 320.714,153.168 323.68,153.168 323.68,153.168 	"/>
</g>
</svg>
