<svg clip-rule="evenodd" fill-rule="evenodd" stroke-linejoin="round" stroke-miterlimit="2" viewBox="0 0 6250 2084" xmlns="http://www.w3.org/2000/svg"><g fill="#212529" fill-rule="nonzero"><path d="m0-43.552c1.672-5.534 3.662-11.079 5.898-16.449 1.873-4.198 4.03-8.42 6.397-12.518 2.079-3.388 4.125-6.405 6.22-9.188 1.397-1.731 2.699-3.234 3.906-4.513.768-.722 1.513-1.367 2.196-1.922 1.029-.733 2.1-1.441 3.084-2.046.423-.222.85-.431 1.283-.634.232-.076.468-.152.702-.222l.494-.086c.198-.011.393-.02.591-.024l.037.004.085.184.186.731c.021.355.034.702.043.947-.054 1.002-.148 2.029-.266 2.982-.209 1.205-.46 2.394-.723 3.452-.558 1.79-1.214 3.588-1.987 5.451-1.578 3.446-3.477 7.029-6.15 11.601-4.421 7.285-9.608 14.725-16.314 23.414-2.659 3.374-5.468 6.79-8.392 10.2.75-3.776 1.661-7.586 2.71-11.364m-247.115-20.187c-4.051 1.364-8.274 1.984-12.549 1.844-3.059-.103-5.527-.611-7.541-1.551-3.07-1.433-5.734-4.216-7.499-7.829-1.469-3.006-2.373-6.553-2.843-11.159-.123-1.212.144-2.333.818-3.428 1.668-2.706 5.482-4.646 8.207-5.869 2-.896 4.005-1.38 5.896-1.434 1.328-.04 2.6.133 3.767.522 1.856.618 3.657 1.841 5.349 3.63 2.85 3.01 4.893 7.075 5.911 11.753.862 3.963 1.021 8.387.484 13.521m-9.182 38.451c-1.992 4.52-4.091 8.715-6.422 12.816-2.717 4.36-5.696 8.667-8.806 12.749-2.167 2.612-4.309 5.024-6.487 7.318-2.061 1.943-4.098 3.721-6.148 5.373-1.483 1.045-2.976 2.041-4.457 2.985-1.405.753-2.776 1.447-4.059 2.067-1.666.625-2.976 1.064-4.14 1.394-.965.203-1.929.369-2.797.492-.737.052-1.47.081-2.09.093-.6-.034-1.196-.088-1.666-.135-.577-.115-1.153-.243-1.611-.353-.618-.205-1.225-.427-1.727-.621-.402-.193-.802-.397-1.107-.559-.65-.409-1.284-.832-1.799-1.195-.422-.365-.834-.738-1.153-1.028-.485-.533-.953-1.068-1.339-1.524-.524-.74-1.017-1.494-1.428-2.164-.346-.684-.67-1.374-.932-1.963-.391-1.108-.749-2.285-1.099-3.582-.252-1.378-.475-2.75-.662-4.037-.186-2.325-.292-4.649-.321-7.03.132-3.575.425-7.131.881-10.81.929-5.643 2.178-11.279 3.808-17.187 1.585-5.091 3.414-10.169 5.419-15.044 2.047-4.585 4.183-8.896 6.482-13.094 2.974 6.398 7.092 11.921 11.929 15.992 3.091 2.598 6.269 4.621 9.456 6.01 4.095 1.769 8.319 2.902 13.291 3.563 3.965.522 8.049.598 12.409.18-1.061 3.137-2.213 6.264-3.425 9.294m404.902-72.834c.911-.144 1.846-.276 2.79-.411 6.965-.985 14.86-2.102 18.552-8.506 1.749-3.036 2.005-6.732.72-10.409-1.623-4.642-5.444-8.633-9.965-10.414-7.912-3.11-16.819-1.013-23.697 1.16-15.606 4.932-44.277 18.712-52.761 39.084-3.488 8.37-3.068 16.862 1.245 25.241 4.12 8.007 10.796 14.211 17.254 20.207.807.751 1.611 1.5 2.412 2.248 7.042 6.617 13.895 13.98 16.343 22.992 2.286 8.42.755 18.395-4.55 29.649-6.552 13.893-17.48 25.029-26.266 33.176-9.966 9.239-18.969 13.457-26.031 12.21-6.579-1.169-9.4-6.574-9.564-6.886-.081-.142-7.741-14.555 23.08-37.639 1.065-.8 2.16-1.575 3.254-2.351 3.842-2.724 7.815-5.543 10.735-9.456 3.651-4.898 5.692-12.797 1.54-18.573-3.754-5.222-10.818-6.244-16.152-4.942-5.564 1.359-10.171 4.807-14.417 8.226-6.039 4.864-8.937 9.528-13.345 14.136-.299.171-.597.342-.886.535-1.483 1-3.074 1.987-4.821 3.003-3.079 1.668-6.477 3.255-10.647 4.97-2.028.761-4.147 1.436-6.419 2.043-1.77.397-3.626.728-5.588.996-1.064.09-2.077.141-3.027.145-1.763-.06-3.229-.161-4.5-.302-1.107-.206-2.228-.458-3.262-.727-1.821-.566-3.307-1.09-4.579-1.596-.573-.278-1.137-.566-1.598-.813-.823-.527-5.317-3.364-6.151-3.983-.928-.771 6.124-5.166 8.509-7.713 9.649-10.3 18.381-20.793 25.958-31.184 6.535-8.959 14.757-20.936 20.392-34.103 2.81-6.558 4.399-13.371 4.601-19.703.065-2.171.067-5.41-.657-8.328-.078-.469-.183-.937-.3-1.352-.18-.711-.411-1.453-.686-2.199-.811-2.212-1.856-4.763-3.439-6.919-1.767-2.389-3.619-4.306-5.83-6.021-6.53-5.087-16.443-6.604-25.251-3.873-3.626 1.126-7.245 2.947-10.751 5.41-3.643 2.561-6.449 4.972-8.834 7.593-4.212 4.635-8.202 10.041-11.858 16.071-7.162 11.801-12.689 24.86-16.425 38.805-3.661 13.681-5.205 39.402-5.205 39.402-20.305 22.862-50.041 33.804-50.075 33.815.099-.268 4.116-9.07 6.035-13.08 2.028-4.239 4.125-8.62 6.076-12.994 3.972-8.919 8.476-19.024 11.501-29.449 1.733-5.959 3.444-12.317 3.711-18.739.223-5.262-.231-9.418-1.429-13.084-1.47-4.473-3.933-8.524-7.13-11.713-5.878-5.86-15.109-7.707-24.698-4.927-1.521.441-3.052.973-4.63 1.612 1.674-9.434 1.207-16.683-1.472-22.812-2.259-5.157-6.199-9.437-10.807-11.745-4.999-2.506-10.313-3.389-15.359-2.565-4.37.72-8.746 2.476-13.317 5.354-.493-4.032-1.938-7.496-4.314-10.323-3.879-4.624-14.645-9.563-25.916 1.79-34.378 34.624-56.865 41.619-56.865 41.619-1.6-13.526-9.635-30.636-21.276-37.807-12.565-7.739-28.724-8.777-42.176-2.71-10.558 4.761-18.549 13.234-24.97 20.897-6.692 7.979-12.63 17.055-18.155 27.743-9.382 18.15-15.028 36.429-16.783 54.327-1.161 11.825-.408 21.846 2.303 30.634 3.334 10.801 9.762 19.634 18.106 24.876 6.624 4.16 14.616 6.145 22.962 5.9 5.732-.169 11.628-1.389 17.359-3.679 11.36-4.543 21.932-12.729 31.956-25.33 17.939-22.55 28.233-59.326 28.233-59.326.365-1.733.711-3.37 1.625-4.567.619-.812 1.536-1.461 2.54-2.169 12.194-8.629 27.047-11.293 50.87-34.324-1.885 1.822-2.05 4.819-3.077 7.188l-.89 2.064-.002-.003c-4.087 9.457-8.771 19.625-14.743 32.006-4.983 10.321-10.261 20.723-15.365 30.782l-.949 1.865c-2.605 5.141-5.226 10.273-7.885 15.386-1.263 2.438-2.542 4.875-3.828 7.307l-.375.71c-.569 1.066-1.155 2.167-1.67 3.307-1.904 4.176-2.284 7.683-1.232 11.369 1.607 5.642 7.334 9.613 13.329 9.35 4.001-.206 7.851-2.178 10.299-5.273.762-.962 1.711-2.165 2.54-3.405 1.607-2.421 3.086-4.918 4.197-6.819 2.393-4.091 4.607-8.254 7.046-12.88 2.531-4.785 5.085-9.558 7.635-14.334 3.352-6.269 6.705-12.54 10.01-18.835 1.2-2.286 2.394-4.579 3.587-6.869 4.363-8.38 8.872-17.045 13.677-25.317 4.345-7.259 8.769-13.796 13.512-19.972 2.218-2.806 4.612-5.512 7.068-7.998 1.07-1 2.201-1.962 3.406-2.904 1.108-.794 4.019-2.83 3.243.829-.447 2.622-1.048 5.336-1.776 8.029-3.238 10.989-7.635 21.749-11.508 30.825l-.002.005v.005l-.038.085-.032.069c-2.358 5.448-4.86 10.953-7.28 16.276-.942 2.073-1.884 4.143-2.819 6.217l-1.425 3.152c-1.18 2.609-2.36 5.221-3.529 7.833-.845 1.876-1.679 3.751-2.479 5.641-1.627 3.851-1.929 7.342-.915 10.668 1.744 5.721 7.391 9.634 13.325 9.328 4.747-.254 8.889-2.935 11.978-7.746 1.151-1.786 2.27-3.74 3.63-6.322 2.104-3.979 4.214-8.083 6.282-12.194.94-1.868 1.866-3.743 2.792-5.615 2.881-5.828 5.864-11.854 9.143-17.532 1.232-2.043 2.435-3.851 3.633-5.462.64-.775 14.157-17.457 17.765-15.052 3.608 2.407-.939 13.218-1.734 16.126-1.81 6.119-4.224 12.664-7.596 20.587-3.324 7.636-6.947 15.291-10.449 22.696l-2.859 6.054c-.499 1.069-.998 2.134-1.475 3.206l-.49 1.126c-.128.274-.252.558-.346.8-.418.974-.854 2.027-1.211 3.129-1.439 4.439-2.145 8.276-2.221 12.075-.124 5.822 1.751 11.351 5.143 15.169 3.187 3.586 7.271 5.975 11.805 6.907 1.665.349 3.369.561 5.059.63.807.033 1.612.038 2.41.018 6.154-.182 12.394-1.965 19.643-5.614 12.616-6.362 42.92-29.536 42.92-29.536s7.372 10.346 9.244 11.798c5.238 4.058 11.839 6.995 19.625 8.74 7.105 1.588 14.55 1.744 22.127.46.103-.017.211-.042.316-.06-1.166 5.61-3.737 11.186-3.15 16.534 1.076 9.779 5.127 18.276 11.406 23.918 7.726 6.941 17.602 8.653 24.522 8.869.536.016 1.073.023 1.615.023 1.818 0 3.664-.092 5.505-.279 25.72-2.619 45.705-20.339 57.939-34.748 12.917-15.216 21.124-30.858 24.385-46.496 3.873-18.558.263-37.674-9.652-51.126-4.007-5.439-9.024-10.06-13.877-14.527-4.767-4.39-9.699-8.933-13.538-14.169-.393-.533-.814-1.145-.825-1.621-.009-.524.463-1.192.906-1.776 8.375-11.061 21.041-18.642 34.747-20.8" transform="matrix(4.16667 0 0 4.16667 3081.46496517 1380.5844378)"/><path d="m0-8.921c-13.875 34.7-27.957 69.623-48.487 100.842-7.299 11.098-15.73 21.986-27.34 28.439-11.609 6.451-27.091 7.494-37.626-.594-9.297-7.142-12.729-19.572-13.637-31.26-5.048-64.873 63.356-114.08 127.524-98.512zm166.299-45.763.214-.53c2.553-6.386 5.196-12.99 7.891-19.473 1.282-3.077 2.588-6.136 3.927-9.184l.243-.552c1.295-2.936 2.515-5.706 3.088-8.962.735-4.149-.679-9.03-3.69-12.736-2.77-3.414-6.865-5.662-11.239-6.168-4.525-.521-9.148.821-12.688 3.696-2.293 1.859-4.01 4.299-5.107 7.251l-.542 1.452-.061-.02c-.595 1.519-1.292 3.01-2.018 4.569-.488 1.045-.962 2.066-1.405 3.091-1.733 4.032-3.39 8.058-4.778 11.465-1.592 3.903-3.156 7.813-4.72 11.724-1.637 4.089-3.273 8.178-4.939 12.255-7.058 17.287-14.342 34.655-21.49 51.646-18.843-8.98-48.906-22.424-60.468-26.335 0 0 22.336-58.697 38.762-102.028 2.892-7.628 5.81-15.601 3.63-23.873-1.279-4.857-4.507-9.618-9.436-10.584-13.482-2.637-20.277 10.119-25.321 21.214-25.895 56.984-42.416 105.997-42.416 105.997s-62.439-23.785-132.105 33.316c-35.574 29.162-49.863 76.107-41.405 121.304 3.511 18.773 30.342 47.845 61.25 47.845 30.911 0 47.476-6.638 66.514-33.386 41.421-58.197 36.09-68.496 66.885-128.577 11.282 4.639 42.003 18.438 60.851 26.642l-9.558 22.794c-7.224 17.238-14.45 34.475-21.706 51.7-1.672 3.967-1.623 8.453.142 12.637 1.83 4.331 5.298 7.759 9.514 9.403 4.134 1.612 8.957 1.511 13.014-.271 4.056-1.779 7.166-5.017 8.998-9.371 4.972-11.805 9.929-23.617 14.882-35.421l5.705-13.602c4.419-10.53 8.849-21.052 13.28-31.578.768-1.822 1.53-3.646 2.296-5.468 1.149-1.733 1.97-3.673 2.399-5.71 5.107-12.135 10.218-24.27 15.296-36.417 6.511-15.579 11.695-28.213 16.311-39.755" transform="matrix(4.16667 0 0 4.16667 1040.08833207 1039.8758319)"/><path d="m0 41.982c-9.107 20.172-18.229 37.036-27.888 51.559-10.8 16.826-29.197 36.511-45.43 36.511-6.449 0-8.74-7.012-8.74-13.018 0-8.225 4.712-23.131 15.236-37.902 9.143-12.834 33.893-42.814 66.064-43.937l3.606-.126zm-169.851 38.122-.274.489c-13.846 24.831-35.217 49.884-51.756 49.884-6.579 0-8.332-8.186-8.332-13.021 0-16.666 9.912-37.873 25.871-55.347 16.058-17.589 35.343-28.304 52.911-29.394l4.154-.256-2.025 3.826c-8.815 16.653-15.487 30.887-20.405 43.51zm-135.646-14.059c1.791-5.552 3.933-11.12 6.35-16.516 2.026-4.22 4.369-8.466 6.943-12.591 2.264-3.413 4.494-6.453 6.781-9.26 1.528-1.747 2.951-3.265 4.273-4.558.842-.731 1.659-1.385 2.409-1.948 1.131-.744 2.305-1.464 3.388-2.081.465-.227.935-.441 1.413-.649.255-.079.515-.158.773-.23l.546-.091c.219-.014.435-.025.653-.032l.04.004.097.183.214.729c.026.355.045.701.057.946-.049 1.003-.143 2.031-.262 2.985-.218 1.208-.485 2.399-.764 3.461-.598 1.795-1.305 3.601-2.141 5.473-1.709 3.465-3.771 7.069-6.678 11.672-4.813 7.336-10.473 14.836-17.796 23.602-2.905 3.404-5.977 6.854-9.175 10.297.791-3.784 1.758-7.605 2.879-11.396m359.184-132.721c-4.746 0-8.303 2.366-11.199 7.444l-.088.155c-2.496 4.675-5.016 11.569-7.936 19.551-1.526 4.18-3.106 8.503-4.785 12.767-5.274 13.227-2.866 6.529-15.139 35.352l-.777 1.823-1.846-.473c-3.904-1-8.033-1-11.357-1-43.069 0-73.411 33.979-87.664 54.233-1.728 2.466-3.425 5.067-5.039 7.723l-.512.603-1.323 1.542c-40.255 47.744-53.569 56.428-57.918 57.354l-1.369.293-.867-1.149c-.329-.429-1.394-2.085-1.394-5.285 0-6.729 2.886-18.844 7.532-31.625l.191-.404c13.963-23.785 27.407-53.343 31.497-63.88l.13-.373c.048-.151.135-.365.226-.58.503-1.225 1.197-2.931 1.197-5.127 0-5.795-5.237-9.099-7.474-10.511l-.388-.222c-.323-.169-9.948-5.14-25.386-5.14-24.403 0-51.002 13.234-72.978 36.307-8.409 8.827-15.541 18.541-21.196 28.879-7.008 14.8-10.328 31.37-11.811 41.385-7.81 3.79-12.611 4.838-13.991 5.369-2.234.785-4.571 1.484-7.078 2.117-1.952.419-4.002.77-6.169 1.06-1.174.103-2.296.166-3.346.182-1.95-.04-3.572-.125-4.98-.251-1.225-.192-2.468-.431-3.614-.689-2.02-.544-3.668-1.051-5.08-1.543-.637-.271-1.264-.552-1.776-.794-.916-.517-1.849-1.091-2.778-1.7-1.034-.759-2.032-1.546-2.795-2.191v-.088c2.741-2.568 5.447-5.169 8.057-7.743 10.563-10.412 20.11-21.006 28.381-31.484 7.132-9.035 16.098-21.105 22.192-34.337 3.038-6.591 4.725-13.422 4.882-19.756.049-2.172.018-5.411-.814-8.32-.091-.468-.213-.935-.347-1.349-.206-.708-.47-1.447-.781-2.191-.92-2.201-2.103-4.74-3.875-6.878-1.98-2.368-4.048-4.264-6.512-5.953-7.275-5.011-18.252-6.413-27.965-3.58-3.998 1.169-7.98 3.031-11.832 5.535-4.003 2.602-7.08 5.047-9.689 7.695-4.61 4.683-8.965 10.135-12.947 16.208-7.796 11.883-13.77 25.006-17.756 38.993-3.905 13.724-5.703 27.002-5.343 39.461.07 2.379.227 4.56.485 6.639-6.866 5.958-12.925 10.853-18.748 15.154-3.141 2.068-16.32 11.389-30.588 15.221-1.261.232-2.515.436-3.661.6-1.405.081-2.671.11-3.745.102-.71-.064-1.416-.142-1.987-.216-.598-.135-3.815-.774-4.274-.895-.204-.075-.404-.155-.472-.171-.368-.196-.732-.395-.972-.531l-.323-.22c-.145-.134-.294-.267-.325-.29-.259-.305-.51-.611-.754-.923-.215-.344-.417-.686-.561-.931-.135-.29-.263-.58-.342-.76-.316-.95-.606-1.899-.847-2.722-.281-1.505-.492-2.999-.645-4.432-.021-1.264-.011-2.518.017-3.664.152-1.522.333-3.023.531-4.446.716-3.589 1.648-7.283 2.839-11.243 3.758-11.291 8.42-22.239 13.268-33.399 4.282-9.85 9.036-20.567 14.964-33.729 9.734-21.616 15.735-34.729 28.938-63.241l.032-.021c8.294.207 16.582.528 24.869.85 8.089.312 16.455.634 24.691.843.193.006.389.009.579.009.197 0 .387-.003.58-.009 3.884-.102 7.054-1.25 9.695-3.511 2.904-2.484 4.767-6.1 5.114-9.922.351-3.956-.929-7.947-3.511-10.955-2.621-3.064-6.463-5.024-10.022-5.116-8.313-.211-16.762-.537-24.935-.854-4.509-.173-9.015-.339-13.524-.499 3.304-7.006 6.912-14.462 11.207-23.154 2.223-4.495 4.448-8.992 6.71-13.474.24-.475.513-.992.81-1.56 2.062-3.918 5.512-10.475 7.541-20.983.85-4.378-1.699-8.775-6.648-11.474-4.077-2.228-9.09-2.437-13.084-.549-2.839 1.34-5.073 3.255-6.64 5.685-3.348 5.205-6.12 10.845-8.798 16.3-.611 1.241-1.219 2.484-1.835 3.72-3.136 6.285-6.251 12.587-9.327 18.901-1.523 3.124-3.036 6.256-4.522 9.402l-3.684 7.872c-.49.944-.928 1.919-1.369 2.897-.209.459-.413.917-.625 1.373l.003.003-1.315 2.823.003.002-.426.91-.28.605c-6.578-.067-13.067-.099-19.349-.119-12.953-.048-28.02-.066-43.032.303-3.824.097-7.422 1.742-10.14 4.64-2.751 2.935-4.241 6.853-4.088 10.75.321 8.034 7.196 14.413 15.365 14.204 14.83-.362 30.422-.484 47.611-.362l-9.582 20.76s-13.185 28.946-20.85 46.136l-1.043 2.34c-5.448 12.205-11.079 24.826-16.125 37.454-2.715 6.79-5.142 13.951-7.22 21.281-2.501 8.865-3.447 17.406-2.806 25.393.368 4.583 1.143 8.496 2.366 11.968 1.506 4.295 3.533 9.225 7.132 13.237 4.051 4.513 8.314 7.665 13.039 9.632 5.151 2.144 10.904 3.234 17.097 3.234h.015c5.909 0 12.246-.95 18.251-2.972 11.191-3.764 29.848-15.047 29.848-15.047l-.008-.024c8.412-5.062 15.51-10.537 21.575-15.568.355-.291.707-.587 1.062-.883 2.44 2.271 5.046 4.143 7.132 5.573 5.834 3.996 13.166 6.851 21.793 8.512 8.739 1.68 29.525-.071 48.07-6.744 5.697 10.36 15.597 16.252 28.266 16.252 13.149 0 26.525-6.469 39.748-19.223l2.457-2.366 1.214 3.265c4.255 11.472 13.832 18.324 25.615 18.324 10.834 0 23.304-8.297 43.039-28.641l2.821-2.906.987 4.021c4.041 16.462 16.711 27.103 32.277 27.103 10.045 0 26.138-4.03 45.779-23.233l2.934-2.87.851 4.118c.793 3.846 2.115 7.474 3.823 10.488 4.039 7.138 10.313 11.07 17.663 11.07 17.526 0 22.041-8.164 37.17-25.379 2.079-2.364 3.711-6.48 3.711-9.73 0-7.835-4.81-12.9-12.257-12.9-3.79 0-7.377 2.364-9.298 4.39l-1.877 2.16c-4.893 5.647-8.571 8.132-11.088 9.189-1.988.832-4.115-.807-3.851-2.947 1.54-12.464 8.411-36.586 23.811-71.167 15.926-34.646 12.331-25.507 19.256-43.055 1.011-2.569 1.975-5.01 2.926-7.402l5.177-13.414c4.778-10.839 9.634-22.273 13.081-33.167l.23-.693c.668-2 1.22-3.787 1.22-5.513 0-6.233-4.924-12.904-12.256-12.904" transform="matrix(4.16667 0 0 4.16667 5610.7544886 891.9590469)"/></g></svg>